<?xml version="1.0"?>
<svg xmlns="http://www.w3.org/2000/svg" xmlns:xlink="http://www.w3.org/1999/xlink" xmlns:svgjs="http://svgjs.com/svgjs" version="1.1" width="512" height="512" x="0" y="0" viewBox="0 0 24 24" style="enable-background:new 0 0 512 512" xml:space="preserve" class=""><g><g xmlns="http://www.w3.org/2000/svg"><path d="m23.25 6h-22.5c-.414 0-.75-.336-.75-.75s.336-.75.75-.75h22.5c.414 0 .75.336.75.75s-.336.75-.75.75z" fill="#ffffff" data-original="#000000" style="" class=""/></g><g xmlns="http://www.w3.org/2000/svg"><path d="m20.56 14c-1.897 0-3.44-1.543-3.44-3.44v-5.31c0-.414.336-.75.75-.75h5.381c.413 0 .749.336.749.75v5.31c0 1.897-1.543 3.44-3.44 3.44zm-1.941-8v4.56c0 1.07.87 1.94 1.94 1.94s1.94-.871 1.94-1.94v-4.56z" fill="#ffffff" data-original="#000000" style="" class=""/></g><g xmlns="http://www.w3.org/2000/svg"><path d="m14.935 14c-2.031 0-3.685-1.653-3.685-3.685v-5.065c0-.414.336-.75.75-.75h5.869c.414 0 .75.336.75.75v5.065c0 2.032-1.653 3.685-3.684 3.685zm-2.185-8v4.315c0 1.205.98 2.185 2.185 2.185s2.185-.98 2.185-2.185v-4.315z" fill="#ffffff" data-original="#000000" style="" class=""/></g><g xmlns="http://www.w3.org/2000/svg"><path d="m9.065 14c-2.031 0-3.685-1.653-3.685-3.685v-5.065c0-.414.336-.75.75-.75h5.87c.414 0 .75.336.75.75v5.065c0 2.032-1.653 3.685-3.685 3.685zm-2.184-8v4.315c0 1.205.98 2.185 2.185 2.185s2.185-.98 2.185-2.185v-4.315z" fill="#ffffff" data-original="#000000" style="" class=""/></g><g xmlns="http://www.w3.org/2000/svg"><path d="m3.44 14c-1.897 0-3.44-1.543-3.44-3.44v-5.31c0-.414.336-.75.75-.75h5.381c.414 0 .75.336.75.75v5.31c0 1.897-1.543 3.44-3.441 3.44zm-1.94-8v4.56c0 1.07.87 1.94 1.94 1.94s1.94-.871 1.94-1.94v-4.56z" fill="#ffffff" data-original="#000000" style="" class=""/></g><g xmlns="http://www.w3.org/2000/svg"><path d="m21.25 23h-18.5c-1.517 0-2.75-1.233-2.75-2.75v-4.5c0-.414.336-.75.75-.75s.75.336.75.75v4.5c0 .689.561 1.25 1.25 1.25h18.5c.689 0 1.25-.561 1.25-1.25v-4.5c0-.414.336-.75.75-.75s.75.335.75.75v4.5c0 1.517-1.233 2.75-2.75 2.75z" fill="#ffffff" data-original="#000000" style="" class=""/></g><g xmlns="http://www.w3.org/2000/svg"><path d="m.75 7.25c-.414 0-.75-.335-.75-.75v-2.75c0-1.517 1.233-2.75 2.75-2.75h18.5c1.517 0 2.75 1.233 2.75 2.75v1.667c0 .414-.336.75-.75.75s-.75-.336-.75-.75v-1.667c0-.689-.561-1.25-1.25-1.25h-18.5c-.689 0-1.25.561-1.25 1.25v2.75c0 .415-.336.75-.75.75z" fill="#ffffff" data-original="#000000" style="" class=""/></g></g></svg>
